<svg xmlns="http://www.w3.org/2000/svg" viewBox="0 0 64 80" x="0px" y="0px"><g><path d="M36.336,19H34.463A34.992,34.992,0,0,1,36,30a34.992,34.992,0,0,1-1.537,11h1.873A31.537,31.537,0,0,0,38,30,31.537,31.537,0,0,0,36.336,19Z"/><path d="M40.486,17.126,32,12.412V5H30V6.915a5.04,5.04,0,0,1-1.448-.52,3.256,3.256,0,0,0-3.109,0,5.245,5.245,0,0,1-4.893,0A4.639,4.639,0,0,0,20,6.147v4.938a5,5,0,0,1,1.446.521,3.248,3.248,0,0,0,3.1,0,5.257,5.257,0,0,1,4.9,0,4.709,4.709,0,0,0,.554.249v.558l-8.486,4.714.972,1.748L30,14.7V18h2V14.7l7.514,4.174Z"/><path d="M28.336,19H26.463A34.992,34.992,0,0,1,28,30a34.992,34.992,0,0,1-1.537,11h1.873A31.537,31.537,0,0,0,30,30,31.537,31.537,0,0,0,28.336,19Z"/><rect x="35" y="52" width="2" height="2"/><path d="M39,54h1a1,1,0,0,0,1-1V52H39Z"/><path d="M40.336,19H38.461A34.885,34.885,0,0,1,40,30a34.885,34.885,0,0,1-1.539,11h1.875A31.537,31.537,0,0,0,42,30,31.537,31.537,0,0,0,40.336,19Z"/><path d="M23,53a1,1,0,0,0,1,1h1V52H23Z"/><path d="M32.334,19H30.461A34.885,34.885,0,0,1,32,30a34.885,34.885,0,0,1-1.539,11h1.874A31.451,31.451,0,0,0,34,30,31.412,31.412,0,0,0,32.334,19Z"/><rect x="27" y="52" width="2" height="2"/><path d="M54,40a.992.992,0,0,0-.327.066l-9.91-11.712-1.526,1.292L53,42.366V51a1,1,0,0,1-1,1H43v1a3,3,0,0,1-3,3H24a3,3,0,0,1-3-3V52H12a1,1,0,0,1-1-1V42.414L23.707,29.707l-1.414-1.414L10.459,40.126A.982.982,0,0,0,10,40H5.107a1.085,1.085,0,0,0-1.093.825A1,1,0,0,0,5,42H8.333a1,1,0,0,1,.987,1.165L8,51.083V53a5.006,5.006,0,0,0,5,5H51a5.006,5.006,0,0,0,5-5V51.083l-1.32-7.918A1,1,0,0,1,55.667,42H59a1,1,0,0,0,.986-1.175A1.085,1.085,0,0,0,58.893,40Z"/><path d="M24.334,19H22.463A34.992,34.992,0,0,1,24,30a34.992,34.992,0,0,1-1.537,11h1.872A31.451,31.451,0,0,0,26,30,31.412,31.412,0,0,0,24.334,19Z"/><rect x="31" y="52" width="2" height="2"/><rect x="30" y="42" width="2" height="9"/></g><text x="0" y="79" fill="#000000" font-size="5px" font-weight="bold" font-family="'Helvetica Neue', Helvetica, Arial-Unicode, Arial, Sans-serif">Created by Smalllike</text><text x="0" y="84" fill="#000000" font-size="5px" font-weight="bold" font-family="'Helvetica Neue', Helvetica, Arial-Unicode, Arial, Sans-serif">from the Noun Project</text></svg>